HIERARCHY
ROOT Hips
{
    OFFSET 0.000000 0.000000 0.000000
    CHANNELS 6 Xposition Yposition Zposition Zrotation Xrotation Yrotation
    JOINT Spine
    {
        OFFSET -0.000000 0.080307 0.000000
        CHANNELS 3 Zrotation Xrotation Yrotation
        JOINT Spine1
        {
            OFFSET -0.000000 0.215056 0.000000
            CHANNELS 3 Zrotation Xrotation Yrotation
            JOINT Neck
            {
                OFFSET -0.000000 0.234643 0.000000
                CHANNELS 3 Zrotation Xrotation Yrotation
                JOINT Head
                {
                    OFFSET -0.000000 0.195383 0.025211
                    CHANNELS 3 Zrotation Xrotation Yrotation
                    End Site
                    {
                        OFFSET -0.000000 0.195871 0.000000
                    }
                }
            }
            JOINT LeftShoulder
            {
                OFFSET 0.039384 0.193292 -0.004513
                CHANNELS 3 Zrotation Xrotation Yrotation
                JOINT LeftArm
                {
                    OFFSET 0.126384 0.000000 0.000000
                    CHANNELS 3 Zrotation Xrotation Yrotation
                    JOINT LeftForeArm
                    {
                        OFFSET 0.285080 0.000000 0.000000
                        CHANNELS 3 Zrotation Xrotation Yrotation
                        JOINT LeftHand
                        {
                            OFFSET 0.240034 0.000000 0.000000
                            CHANNELS 3 Zrotation Xrotation Yrotation
                            End Site
                            {
                                OFFSET 0.146904 0.000000 0.000000
                            }
                        }
                    }
                }
            }
            JOINT RightShoulder
            {
                OFFSET -0.038960 0.193292 -0.004513
                CHANNELS 3 Zrotation Xrotation Yrotation
                JOINT RightArm
                {
                    OFFSET -0.126384 0.000000 0.000000
                    CHANNELS 3 Zrotation Xrotation Yrotation
                    JOINT RightForeArm
                    {
                        OFFSET -0.285080 0.000000 0.000000
                        CHANNELS 3 Zrotation Xrotation Yrotation
                        JOINT RightHand
                        {
                            OFFSET -0.240034 0.000000 0.000000
                            CHANNELS 3 Zrotation Xrotation Yrotation
                            End Site
                            {
                                OFFSET -0.146904 0.000000 0.000000
                            }
                        }
                    }
                }
            }
        }
    }
    JOINT LeftUpLeg
    {
        OFFSET 0.097936 0.000000 0.000000
        CHANNELS 3 Zrotation Xrotation Yrotation
        JOINT LeftLeg
        {
            OFFSET -0.000000 -0.416224 0.000000
            CHANNELS 3 Zrotation Xrotation Yrotation
            JOINT LeftFoot
            {
                OFFSET -0.000000 -0.490604 0.000000
                CHANNELS 3 Zrotation Xrotation Yrotation
                JOINT LeftToeBase
                {
                    OFFSET -0.000000 -0.063658 0.146904
                    CHANNELS 3 Zrotation Xrotation Yrotation
                    End Site
                    {
                        OFFSET -0.000000 0.000000 0.039174
                    }
                }
            }
        }
    }
    JOINT RightUpLeg
    {
        OFFSET -0.097936 0.000000 0.000000
        CHANNELS 3 Zrotation Xrotation Yrotation
        JOINT RightLeg
        {
            OFFSET -0.000000 -0.416224 0.000000
            CHANNELS 3 Zrotation Xrotation Yrotation
            JOINT RightFoot
            {
                OFFSET -0.000000 -0.490604 0.000000
                CHANNELS 3 Zrotation Xrotation Yrotation
                JOINT RightToeBase
                {
                    OFFSET -0.000000 -0.063658 0.146904
                    CHANNELS 3 Zrotation Xrotation Yrotation
                    End Site
                    {
                        OFFSET -0.000000 0.000000 0.039174
                    }
                }
            }
        }
    }
}
MOTION
Frames:    11
Frame Time:    0.010000
-0.479996    0.638995    -0.428775    20.500811    -5.536477    35.902790    -2.040461    -33.509789    -5.680796    7.274623    9.018620    -2.266609    7.555866    36.845879    11.244109    -30.020914    12.165491    22.075186    12.428382    11.302215    10.353884    -73.860184    3.399683    5.691418    3.231072    -49.576092    -80.377197    -26.215321    -41.322247    -37.447643    4.878504    6.556007    -25.674862    55.815212    8.034433    1.427236    -2.215750    -65.006950    99.020401    35.447952    -58.938564    31.538725    14.507667    25.874405    -8.528746    -14.534965    53.886806    11.962593    -28.352596    -22.300343    -7.089176    0.000000    0.000000    0.000000    -65.180649    -25.010561    -6.557161    61.660084    67.273079    -39.054317    18.775116    -16.852989    3.573137    0.000000    0.000000    0.000000    
-0.478947    0.638020    -0.427420    20.373543    -5.629252    35.713188    -2.016808    -33.512535    -5.704525    7.393081    9.089322    -2.290159    7.397716    36.812149    11.386932    -29.327295    12.414552    22.040640    12.525391    11.386742    10.258294    -73.949356    3.275323    5.681579    3.304683    -49.547295    -80.866844    -26.260046    -41.205170    -37.480629    4.932050    6.587428    -25.648216    55.652645    7.854787    1.429868    -2.302318    -65.103760    99.059235    35.190151    -59.051430    31.503628    14.700661    25.980303    -8.721377    -14.159829    54.019264    11.789001    -28.905186    -21.499096    -8.192913    0.000000    0.000000    0.000000    -65.358688    -25.377363    -6.836834    63.103180    67.575157    -40.096638    17.858732    -16.208715    2.392328    0.000000    0.000000    0.000000    
-0.477919    0.637068    -0.426135    20.235098    -5.642544    35.520504    -1.976609    -33.558323    -5.658408    7.423184    9.117515    -2.282291    7.571398    36.912174    11.259762    -29.125278    12.476809    21.962742    12.675661    11.406051    10.259610    -73.969276    3.149519    5.666493    3.200158    -49.313881    -81.617126    -26.281918    -41.038349    -37.126942    4.925798    6.414272    -25.765707    55.493763    7.958472    1.367543    -2.207129    -65.267365    99.265945    35.272289    -59.287189    31.521763    14.828618    26.059715    -8.922632    -13.829601    54.066616    11.617111    -29.398529    -20.770103    -9.172918    0.000000    0.000000    0.000000    -65.602356    -25.748013    -7.162969    64.329712    67.784332    -41.244541    18.058392    -15.985718    2.779332    0.000000    0.000000    0.000000    
-0.476692    0.636203    -0.424633    20.134359    -5.742926    35.320679    -1.929160    -33.471676    -5.615694    7.529223    9.065580    -2.278174    7.721190    37.050930    11.133128    -29.155207    12.392023    21.897566    12.816190    11.475441    10.331602    -73.910980    2.945862    5.692665    2.770569    -48.785976    -82.491203    -26.169270    -40.760384    -36.883266    4.807889    5.996891    -25.686974    55.320477    8.279500    0.889629    -2.576640    -65.683037    99.262802    35.612186    -59.470318    31.808743    14.947949    26.343519    -9.035547    -13.257358    53.965343    11.276793    -29.379179    -20.098269    -10.152050    0.000000    0.000000    0.000000    -65.744347    -25.985193    -7.518744    65.350861    68.079559    -42.102047    17.794512    -15.724130    2.494220    0.000000    0.000000    0.000000    
-0.475626    0.635179    -0.423145    20.021452    -5.802093    35.091473    -1.813696    -33.460484    -5.572259    7.401819    9.112500    -2.267709    8.080727    37.242184    10.930557    -29.417658    12.052461    21.847052    13.083440    11.509998    10.472262    -73.863617    2.906307    5.675345    2.771130    -48.478149    -82.790894    -26.176622    -40.408077    -36.815342    5.172160    6.298736    -25.852179    55.035233    7.944992    1.387768    -2.535982    -65.470909    99.506325    35.496590    -59.255844    31.750582    14.986567    26.563852    -9.039730    -12.608240    53.954437    10.931144    -29.989294    -19.424612    -11.089382    0.000000    0.000000    0.000000    -65.906441    -26.227976    -7.726712    66.601204    68.158394    -43.112236    17.618679    -15.595082    2.124311    0.000000    0.000000    0.000000    
-0.474992    0.634675    -0.422139    19.632002    -5.524869    34.808846    -1.679696    -33.978210    -5.539813    7.413810    9.226922    -2.275787    8.138811    37.540207    10.850216    -29.551645    11.465081    21.696650    13.272215    11.544768    10.476479    -74.072365    4.278622    5.611007    4.005600    -49.908855    -81.721458    -26.774467    -41.009827    -37.417297    5.206651    6.250503    -25.817474    54.856339    7.950718    1.415602    -2.564743    -65.534416    99.711235    35.165516    -59.419571    31.436834    14.922606    26.323940    -9.057492    -12.284871    53.898876    10.741228    -30.152372    -18.909189    -11.601577    0.000000    0.000000    0.000000    -66.076317    -26.645973    -8.198921    67.451591    68.091660    -44.162350    17.448795    -15.457309    2.019218    0.000000    0.000000    0.000000    
-0.474189    0.633485    -0.420709    19.486944    -5.544254    34.598473    -1.692880    -33.953876    -5.547154    7.568172    9.231948    -2.289720    8.106483    37.155525    10.953510    -29.380917    12.207627    21.906139    13.349990    11.564880    10.246042    -73.667480    2.898692    5.784865    2.397632    -48.558002    -82.699814    -26.196690    -40.678783    -37.161018    5.139247    6.193886    -25.763763    54.745907    7.837998    1.335776    -1.984879    -65.343300    100.356758    34.752090    -59.634235    31.163593    14.937893    26.455599    -9.239688    -12.093946    53.900799    10.636101    -30.439907    -18.523218    -12.078186    0.000000    0.000000    0.000000    -66.215752    -26.849899    -8.452477    68.464058    68.135521    -45.127945    17.272587    -15.438575    1.813341    0.000000    0.000000    0.000000    
-0.473353    0.632417    -0.419399    19.304325    -5.535867    34.384357    -1.689109    -33.913868    -5.497123    7.816796    9.188706    -2.291493    7.877314    37.336861    10.970279    -29.364555    11.798471    21.724470    13.332267    11.569659    9.908944    -73.465912    2.096329    5.935786    1.604243    -47.973488    -83.123085    -25.994650    -40.621109    -36.998352    4.804277    5.745559    -25.557665    54.792873    8.249408    0.809380    -2.079889    -65.779404    100.326279    34.736752    -60.114918    31.129023    14.933852    26.512949    -9.458766    -12.169145    53.924103    10.677814    -30.458038    -18.427702    -12.151820    0.000000    0.000000    0.000000    -66.379837    -27.141954    -8.794912    69.525307    68.191826    -46.014660    16.801590    -15.398560    1.345031    0.000000    0.000000    0.000000    
-0.472554    0.631275    -0.418154    19.111664    -5.568915    34.207020    -1.676266    -33.870007    -5.483095    7.986344    9.257263    -2.306474    7.807387    37.224705    10.982417    -29.228605    11.838667    21.674631    13.303081    11.525646    9.728678    -73.446014    1.729950    5.960743    1.357973    -47.822151    -83.381538    -26.038364    -40.566471    -37.166878    4.785009    6.124326    -25.698826    54.880257    7.972605    1.405081    -1.969147    -65.589127    100.149879    34.542675    -59.997459    31.049444    14.981119    26.529751    -9.579872    -12.228886    54.071156    10.742025    -30.504807    -18.348417    -12.157670    0.000000    0.000000    0.000000    -66.500694    -27.350681    -8.890929    70.797089    68.066772    -47.022762    16.534142    -15.369816    0.923712    0.000000    0.000000    0.000000    
-0.471629    0.630044    -0.417071    18.888414    -5.679285    33.996334    -1.529906    -33.717876    -5.420212    8.076796    9.292910    -2.310010    8.013247    36.924404    10.957325    -29.262625    12.142983    21.806118    13.255992    11.536499    9.756083    -73.655556    2.240888    5.828879    1.773516    -48.459938    -83.463173    -26.451591    -40.813164    -37.586838    4.859738    6.173121    -25.485224    54.825687    8.087782    1.570315    -2.937628    -66.064919    98.968597    34.517849    -60.036449    31.066080    15.062860    26.580050    -9.478540    -12.167055    54.303925    10.763803    -30.522018    -18.308191    -12.166051    0.000000    0.000000    0.000000    -66.477867    -27.565166    -9.134907    71.744583    68.118660    -48.060116    16.297932    -15.329437    0.693149    0.000000    0.000000    0.000000    
-0.470681    0.628700    -0.415667    18.775316    -5.720790    33.920074    -1.738144    -33.565430    -5.514011    8.334548    9.350964    -2.346410    8.062836    36.813244    10.991408    -29.262554    12.073274    21.837574    13.284843    11.615682    9.749219    -73.736244    1.822309    5.781010    1.385078    -47.799297    -84.158134    -26.561728    -40.289490    -37.552971    4.944892    6.180095    -25.550642    54.656380    8.033866    1.791112    -3.123464    -65.840172    98.473976    34.156353    -59.740955    30.952770    15.111935    26.618036    -9.628740    -12.401679    54.469830    10.927472    -30.464191    -18.400288    -11.950019    0.000000    0.000000    0.000000    -66.641777    -27.681618    -9.712804    72.832085    68.395744    -48.898521    15.933691    -15.392556    -0.037052    0.000000    0.000000    0.000000    
